<?xml version="1.0" standalone="no"?>
<!DOCTYPE svg PUBLIC "-//W3C//DTD SVG 20010904//EN"
 "http://www.w3.org/TR/2001/REC-SVG-20010904/DTD/svg10.dtd">
<svg version="1.0" xmlns="http://www.w3.org/2000/svg"
 width="700.000000pt" height="700.000000pt" viewBox="0 0 700.000000 700.000000"
 preserveAspectRatio="xMidYMid meet">
<metadata>
Created by potrace 1.14, written by Peter Selinger 2001-2017
</metadata>
<g transform="translate(0.000000,700.000000) scale(0.100000,-0.100000)"
fill="#000000" stroke="none">
<path d="M3285 6549 c-629 -48 -1214 -281 -1703 -677 -108 -87 -303 -277 -388
-377 -32 -38 -61 -72 -64 -75 -12 -12 -120 -161 -167 -230 -96 -143 -208 -355
-277 -522 -37 -90 -111 -305 -120 -349 -3 -13 -14 -62 -26 -109 -28 -114 -57
-287 -65 -385 -3 -44 -8 -98 -11 -120 -7 -54 -7 -358 0 -420 3 -27 8 -77 11
-110 3 -33 7 -71 9 -85 2 -14 7 -47 11 -75 10 -76 61 -301 86 -380 12 -38 24
-78 26 -87 1 -9 26 -76 54 -149 330 -847 999 -1492 1854 -1789 79 -27 242 -74
293 -85 9 -2 38 -8 65 -14 26 -6 64 -14 85 -16 20 -3 47 -8 60 -11 12 -2 42
-7 66 -10 24 -2 55 -7 67 -9 91 -18 436 -24 599 -12 105 9 120 10 265 33 733
116 1422 519 1887 1104 377 475 593 1011 656 1625 15 147 6 587 -14 689 -2 12
-7 41 -10 66 -32 248 -140 598 -266 860 -440 912 -1323 1560 -2313 1696 -196
27 -493 37 -670 23z"/>
</g>
</svg>
