<svg width="1024" height="1024" viewBox="0 0 1024 1024" fill="none" xmlns="http://www.w3.org/2000/svg">
<rect width="1024" height="1024" fill="#121212"/>
<path d="M402.443 615.384V589.577C402.443 570.043 406.117 551.584 413.465 534.2C420.813 516.637 434.254 495.4 453.788 470.489C463.645 456.869 470.007 443.338 472.875 429.897H416.691C413.106 443.338 405.759 454.091 394.647 462.155C383.715 470.041 370.184 473.984 354.055 473.984H340.883L359.969 368.067H665.621L684.976 473.984H671.803C655.853 473.984 642.233 470.041 630.942 462.155C619.831 454.091 612.483 443.338 608.899 429.897H555.403C552.715 449.61 546.353 467.711 536.317 484.199C555.493 490.471 570.726 498.895 582.017 509.468C593.307 520.042 602.537 534.021 609.705 551.405C616.874 568.788 621.892 590.115 624.759 615.384H542.769C540.976 600.151 538.288 587.427 534.704 577.212C531.12 566.817 526.729 558.663 521.532 552.749C516.334 546.655 508.986 541.637 499.488 537.695C489.094 558.125 483.896 575.419 483.896 589.577V615.384H402.443ZM643.577 241.99L662.932 347.906H649.76C633.81 347.906 620.189 343.963 608.899 336.078C597.788 328.013 590.44 317.26 586.855 303.819H438.734C435.15 317.26 427.802 328.013 416.691 336.078C405.759 343.963 392.228 347.906 376.098 347.906H362.926L382.013 241.99H643.577ZM643.577 648.45L662.932 754.097H649.76C633.81 754.097 620.189 750.154 608.899 742.269C597.788 734.383 590.44 723.63 586.855 710.01H438.734C435.15 723.63 427.802 734.383 416.691 742.269C405.759 750.154 392.228 754.097 376.098 754.097H362.926L382.013 648.45H643.577Z" fill="white"/>
</svg>
