<svg width="1024" height="1024" viewBox="0 0 1024 1024" fill="none" xmlns="http://www.w3.org/2000/svg">
<rect width="1024" height="1024" rx="200" fill="#1F1F1F"/>
<path d="M374.659 744.738C366.75 744.738 360.877 737.411 362.597 729.691L378.1 660.129C379.628 653.27 385.714 648.392 392.741 648.392H633.504C640.532 648.392 646.617 653.27 648.145 660.129L663.648 729.691C665.368 737.411 659.495 744.738 651.586 744.738V744.738C640.942 744.738 630.665 741.985 620.755 736.479C612.792 732.351 605.778 724.668 599.711 713.431C596.867 708.164 591.554 704.548 585.568 704.548H440.677C434.691 704.548 429.378 708.164 426.534 713.431C420.467 724.668 413.453 732.351 405.49 736.479C395.58 741.985 385.303 744.738 374.659 744.738V744.738ZM374.659 345.039C366.75 345.039 360.877 337.713 362.597 329.993L378.1 260.43C379.628 253.571 385.714 248.693 392.741 248.693H633.504C640.532 248.693 646.617 253.571 648.145 260.43L663.648 329.993C665.368 337.713 659.495 345.039 651.586 345.039V345.039C640.942 345.039 630.665 342.47 620.755 337.331C612.788 332.906 605.771 325.041 599.702 313.736C596.871 308.463 591.554 304.849 585.568 304.849H440.677C434.691 304.849 429.374 308.463 426.543 313.736C420.474 325.041 413.457 332.906 405.49 337.331C395.58 342.47 385.303 345.039 374.659 345.039V345.039ZM353.739 461.755C345.829 461.755 339.956 454.429 341.676 446.709L357.179 377.147C358.707 370.288 364.793 365.409 371.82 365.409H460.96C469.245 365.409 475.96 372.125 475.96 380.409V406.565C475.96 414.85 469.245 421.565 460.96 421.565H419.756C413.771 421.565 408.454 425.179 405.622 430.453C399.553 441.757 392.536 449.622 384.569 454.048C374.659 459.186 364.383 461.755 353.739 461.755V461.755ZM671.956 461.755C661.312 461.755 651.035 459.186 641.125 454.048C633.159 449.622 626.141 441.757 620.072 430.453C617.241 425.179 611.924 421.565 605.938 421.565H564.734C556.45 421.565 549.734 414.85 549.734 406.565V380.409C549.734 372.125 556.45 365.409 564.734 365.409H653.875C660.902 365.409 666.987 370.288 668.516 377.147L684.018 446.709C685.739 454.429 679.865 461.755 671.956 461.755V461.755ZM416.636 614.258C408.352 614.258 401.636 607.542 401.636 599.258V588.382C401.636 572.966 403.655 559.386 407.692 547.641C411.73 535.529 417.419 523.417 424.759 511.305C432.467 499.193 441.826 485.246 452.837 469.463C456.875 463.958 459.995 458.085 462.197 451.846C464.766 445.606 466.785 439.55 468.253 433.677C468.615 432.447 468.955 431.252 469.274 430.092C471.221 423.023 477.481 417.712 484.814 417.712H538.193C547.039 417.712 554.014 425.348 552.312 434.029C551.868 436.298 551.375 438.566 550.835 440.835C549 448.175 546.798 455.516 544.229 462.857C543.677 464.353 543.109 465.84 542.524 467.32C539.151 475.851 543.315 485.723 551.617 489.628C560.107 493.623 568.105 498.462 575.61 504.148C587.722 513.324 597.999 526.537 606.441 543.787C613.243 557.688 618.377 575.64 621.843 597.644C623.234 606.475 616.239 614.258 607.299 614.258H555.302C547.722 614.258 541.397 608.59 540.104 601.121C538.049 589.246 535.386 579.494 532.116 571.865C528.079 561.588 523.124 553.881 517.252 548.742C515.019 546.509 512.665 544.518 510.191 542.768C504.024 538.407 495.855 541.625 492.811 548.537C490.573 553.619 488.626 558.642 486.971 563.607C484.402 572.049 483.118 580.307 483.118 588.382V599.258C483.118 607.542 476.402 614.258 468.118 614.258H416.636ZM460.13 421.565C451.845 421.565 445.13 414.85 445.13 406.565V380.409C445.13 372.125 451.845 365.409 460.13 365.409H572.722C581.006 365.409 587.722 372.125 587.722 380.409V406.565C587.722 414.85 581.006 421.565 572.722 421.565H460.13Z" fill="white"/>
</svg>
