<svg width="448" height="448" viewBox="0 0 448 448" fill="none" xmlns="http://www.w3.org/2000/svg">
<rect x="0.5" y="0.5" width="447" height="447" rx="223.5" fill="#3C0089"/>
<rect x="0.5" y="0.5" width="447" height="447" rx="223.5" fill="#6366F1"/>
<path d="M180.008 271.133V260.746C180.008 252.884 181.487 245.454 184.444 238.458C187.402 231.389 192.812 222.841 200.674 212.815C204.641 207.333 207.202 201.887 208.356 196.477H185.743C184.3 201.887 181.343 206.215 176.87 209.46C172.47 212.634 167.024 214.221 160.532 214.221H155.231L162.913 171.591H285.934L293.724 214.221H288.423C282.003 214.221 276.521 212.634 271.976 209.46C267.504 206.215 264.547 201.887 263.104 196.477H241.573C240.491 204.411 237.93 211.697 233.891 218.333C241.609 220.857 247.74 224.248 252.284 228.503C256.829 232.759 260.544 238.385 263.429 245.382C266.314 252.379 268.334 260.963 269.488 271.133H236.488C235.766 265.002 234.684 259.881 233.242 255.769C231.799 251.586 230.032 248.304 227.94 245.923C225.848 243.471 222.891 241.451 219.068 239.864C214.884 248.087 212.792 255.048 212.792 260.746V271.133H180.008ZM277.062 120.846L284.852 163.476H279.55C273.131 163.476 267.649 161.889 263.104 158.716C258.632 155.47 255.675 151.142 254.232 145.732H194.615C193.172 151.142 190.215 155.47 185.743 158.716C181.343 161.889 175.897 163.476 169.405 163.476H164.103L171.785 120.846H277.062ZM277.062 284.442L284.852 326.964H279.55C273.131 326.964 267.649 325.377 263.104 322.203C258.632 319.029 255.675 314.701 254.232 309.219H194.615C193.172 314.701 190.215 319.029 185.743 322.203C181.343 325.377 175.897 326.964 169.405 326.964H164.103L171.785 284.442H277.062Z" fill="url(#paint0_linear_465_1314)"/>
<defs>
<linearGradient id="paint0_linear_465_1314" x1="255.022" y1="120.846" x2="255.022" y2="326.964" gradientUnits="userSpaceOnUse">
<stop/>
<stop offset="1" stop-opacity="0.61"/>
</linearGradient>
</defs>
</svg>
