<svg width="1440" height="1440" viewBox="0 0 1440 1440" fill="none" xmlns="http://www.w3.org/2000/svg">
<rect width="1440" height="1440" rx="111" fill="#1F1F1F"/>
<rect x="736" y="1002" width="246" height="246" rx="51" fill="#262626"/>
<rect x="458" y="1002" width="246" height="246" rx="51" fill="#262626"/>
<rect x="180" y="1002" width="246" height="246" rx="51" fill="#262626"/>
<rect x="1014" y="1002" width="246" height="246" rx="51" fill="#262626"/>
<rect x="736" y="462" width="246" height="246" rx="51" fill="#262626"/>
<rect x="458" y="462" width="246" height="246" rx="51" fill="#262626"/>
<rect x="180" y="462" width="246" height="246" rx="51" fill="#262626"/>
<rect x="1014" y="462" width="246" height="246" rx="51" fill="#262626"/>
<rect x="736" y="732" width="246" height="246" rx="51" fill="#262626"/>
<rect x="458" y="732" width="246" height="246" rx="51" fill="#262626"/>
<rect x="180" y="732" width="246" height="246" rx="51" fill="#262626"/>
<rect x="1014" y="732" width="246" height="246" rx="51" fill="#262626"/>
<rect x="736" y="192" width="246" height="246" rx="51" fill="#262626"/>
<rect x="458" y="192" width="246" height="246" rx="51" fill="#262626"/>
<rect x="180" y="192" width="246" height="246" rx="51" fill="#262626"/>
<rect x="1014" y="192" width="246" height="246" rx="51" fill="#262626"/>
<rect x="182" y="732" width="246" height="246" rx="51" fill="#FDEFC2"/>
<path d="M278.636 901.792L282.188 885.76H327.788L331.34 901.792H328.94C327.084 901.792 325.324 901.216 323.66 900.064C321.996 898.976 320.652 897.12 319.628 894.496H290.348C289.324 897.12 287.98 898.976 286.316 900.064C284.652 901.216 282.892 901.792 281.036 901.792H278.636ZM278.828 832.288L282.38 816.256H327.596L331.148 832.288H328.748C326.892 832.288 325.132 831.744 323.468 830.656C321.804 829.504 320.46 827.616 319.436 824.992H290.444C289.484 827.616 288.172 829.504 286.508 830.656C284.844 831.744 283.084 832.288 281.228 832.288H278.828ZM304.94 880.672C299.436 880.672 295.276 879.232 292.46 876.352C289.708 873.408 288.332 869.312 288.332 864.064V835.264H300.236V844H309.836V835.264H321.74V864.256C321.74 867.456 321.164 870.304 320.012 872.8C318.924 875.232 317.132 877.152 314.636 878.56C312.204 879.968 308.972 880.672 304.94 880.672ZM305.228 870.688C307.02 870.688 308.236 869.984 308.876 868.576C309.516 867.168 309.836 865.216 309.836 862.72V850.912H300.236V863.008C300.236 865.568 300.62 867.488 301.388 868.768C302.156 870.048 303.436 870.688 305.228 870.688Z" fill="black"/>
<rect x="458" y="732" width="246" height="246" rx="51" fill="#E7E6E6"/>
<path d="M555.155 901.792L558.707 885.76H604.307L607.859 901.792H605.459C603.603 901.792 601.843 901.216 600.179 900.064C598.579 898.976 597.267 897.12 596.243 894.496H566.867C565.843 897.12 564.499 898.976 562.835 900.064C561.171 901.216 559.411 901.792 557.555 901.792H555.155ZM555.347 832.288L558.899 816.256H604.115L607.667 832.288H605.267C603.411 832.288 601.651 831.744 599.987 830.656C598.387 829.504 597.075 827.616 596.051 824.992H567.059C566.035 827.616 564.691 829.504 563.027 830.656C561.363 831.744 559.603 832.288 557.747 832.288H555.347ZM557.651 881.248L561.299 865.216H581.651V873.952H569.363C568.403 876.576 567.091 878.464 565.427 879.616C563.763 880.704 561.971 881.248 560.051 881.248H557.651ZM603.347 881.248C601.491 881.248 599.731 880.704 598.067 879.616C596.467 878.464 595.155 876.576 594.131 873.952H581.843V865.216H602.195L605.747 881.248H603.347ZM552.371 852.448L555.923 836.416H576.275V845.152H564.083C563.059 847.776 561.715 849.664 560.051 850.816C558.387 851.904 556.627 852.448 554.771 852.448H552.371ZM608.339 852.448C606.419 852.448 604.627 851.904 602.963 850.816C601.363 849.664 600.051 847.776 599.027 845.152H586.739V836.416H607.091L610.739 852.448H608.339ZM575.507 867.232V838.624H587.795V867.232H575.507ZM569.267 873.952V865.312H594.899V873.952H569.267ZM565.331 845.152V836.416H597.203V845.152H565.331Z" fill="black"/>
<rect x="458" y="462" width="246" height="246" rx="51" fill="#2D2D2D"/>
<path d="M554.636 631.792L558.188 615.76H603.788L607.34 631.792H604.94C603.084 631.792 601.324 631.216 599.66 630.064C597.996 628.976 596.652 627.12 595.628 624.496H566.348C565.324 627.12 563.98 628.976 562.316 630.064C560.652 631.216 558.892 631.792 557.036 631.792H554.636ZM554.828 562.288L558.38 546.256H603.596L607.148 562.288H604.748C602.892 562.288 601.132 561.744 599.468 560.656C597.804 559.504 596.46 557.616 595.436 554.992H566.444C565.484 557.616 564.172 559.504 562.508 560.656C560.844 561.744 559.084 562.288 557.228 562.288H554.828ZM580.652 610.672C576.492 610.672 572.972 609.904 570.092 608.368C567.276 606.832 565.132 604.752 563.66 602.128C562.252 599.44 561.548 596.4 561.548 593.008C561.548 589.488 562.028 586.448 562.988 583.888C564.012 581.264 565.324 578.832 566.924 576.592C568.524 574.352 570.252 572.048 572.108 569.68L578.444 562.096H591.308L582.572 573.328C586.796 573.968 590.188 575.184 592.748 576.976C595.372 578.704 597.26 580.848 598.412 583.408C599.628 585.968 600.236 588.816 600.236 591.952C600.236 596.56 599.308 600.24 597.452 602.992C595.596 605.68 593.164 607.632 590.156 608.848C587.212 610.064 584.044 610.672 580.652 610.672ZM580.94 601.552C583.244 601.552 585.164 600.848 586.7 599.44C588.236 597.968 589.004 595.76 589.004 592.816C589.004 590.96 588.62 589.232 587.852 587.632C587.148 585.968 585.9 584.624 584.108 583.6C582.38 582.512 580.044 581.84 577.1 581.584C575.628 583.632 574.572 585.552 573.932 587.344C573.292 589.136 572.972 590.992 572.972 592.912C572.972 595.792 573.74 597.968 575.276 599.44C576.812 600.848 578.7 601.552 580.94 601.552Z" fill="#D4D4D4"/>
<rect x="458" y="1000" width="246" height="246" rx="51" fill="#FDEFC2"/>
<path d="M554.636 1169.79L558.188 1153.76H603.788L607.34 1169.79H604.94C603.084 1169.79 601.324 1169.22 599.66 1168.06C597.996 1166.98 596.652 1165.12 595.628 1162.5H566.348C565.324 1165.12 563.98 1166.98 562.316 1168.06C560.652 1169.22 558.892 1169.79 557.036 1169.79H554.636ZM554.828 1100.29L558.38 1084.26H603.596L607.148 1100.29H604.748C602.892 1100.29 601.132 1099.74 599.468 1098.66C597.804 1097.5 596.46 1095.62 595.436 1092.99H566.444C565.484 1095.62 564.172 1097.5 562.508 1098.66C560.844 1099.74 559.084 1100.29 557.228 1100.29H554.828ZM580.94 1148.67C575.436 1148.67 571.276 1147.23 568.46 1144.35C565.708 1141.41 564.332 1137.31 564.332 1132.06V1103.26H576.236V1112H585.836V1103.26H597.74V1132.26C597.74 1135.46 597.164 1138.3 596.012 1140.8C594.924 1143.23 593.132 1145.15 590.636 1146.56C588.204 1147.97 584.972 1148.67 580.94 1148.67ZM581.228 1138.69C583.02 1138.69 584.236 1137.98 584.876 1136.58C585.516 1135.17 585.836 1133.22 585.836 1130.72V1118.91H576.236V1131.01C576.236 1133.57 576.62 1135.49 577.388 1136.77C578.156 1138.05 579.436 1138.69 581.228 1138.69Z" fill="black"/>
<rect x="181" y="1001" width="246" height="246" rx="51" fill="#A2EF9B"/>
<path d="M278.157 1170.79L281.709 1154.76H327.309L330.957 1170.79H328.557C326.637 1170.79 324.845 1170.22 323.181 1169.06C321.581 1167.98 320.269 1166.12 319.245 1163.5H289.869C288.845 1166.12 287.501 1167.98 285.837 1169.06C284.237 1170.22 282.477 1170.79 280.557 1170.79H278.157ZM278.349 1101.29L281.901 1085.26H327.213L330.765 1101.29H328.365C326.445 1101.29 324.653 1100.74 322.989 1099.66C321.389 1098.5 320.077 1096.62 319.053 1093.99H290.061C289.037 1096.62 287.693 1098.5 286.029 1099.66C284.429 1100.74 282.669 1101.29 280.749 1101.29H278.349ZM275.277 1121.35L278.829 1105.22H299.181V1113.96H286.989C285.965 1116.65 284.621 1118.57 282.957 1119.72C281.293 1120.81 279.533 1121.35 277.677 1121.35H275.277ZM331.341 1121.35C329.485 1121.35 327.725 1120.81 326.061 1119.72C324.397 1118.57 323.053 1116.65 322.029 1113.96H309.837V1105.22H330.189L333.741 1121.35H331.341ZM285.741 1148.62V1144.97C285.741 1142.28 286.061 1139.88 286.701 1137.77C287.405 1135.59 288.397 1133.45 289.677 1131.34C291.021 1129.16 292.717 1126.76 294.765 1124.14C295.661 1122.92 296.365 1121.67 296.877 1120.39C297.389 1119.11 297.773 1117.86 298.029 1116.65C298.349 1115.43 298.573 1114.31 298.701 1113.29H310.989C310.861 1114.95 310.605 1116.55 310.221 1118.09C309.901 1119.56 309.453 1121 308.877 1122.41C308.301 1123.82 307.629 1125.19 306.861 1126.54C309.549 1127.3 312.013 1128.42 314.253 1129.9C316.557 1131.37 318.477 1133.58 320.013 1136.52C321.613 1139.4 322.701 1143.43 323.277 1148.62H311.085C310.701 1145.16 310.029 1142.5 309.069 1140.65C308.109 1138.79 306.957 1137.42 305.613 1136.52C304.333 1135.56 302.893 1134.82 301.293 1134.31C300.205 1136.23 299.341 1138.09 298.701 1139.88C298.125 1141.67 297.837 1143.37 297.837 1144.97V1148.62H285.741ZM293.997 1113.96V1105.22H316.653V1113.96H293.997Z" fill="black"/>
<rect x="736" y="462" width="246" height="246" rx="51" fill="#2D2D2D"/>
<path d="M832.636 631.792L836.188 615.76H881.788L885.34 631.792H882.94C881.084 631.792 879.324 631.216 877.66 630.064C875.996 628.976 874.652 627.12 873.628 624.496H844.348C843.324 627.12 841.98 628.976 840.316 630.064C838.652 631.216 836.892 631.792 835.036 631.792H832.636ZM832.828 562.288L836.38 546.256H881.596L885.148 562.288H882.748C880.892 562.288 879.132 561.744 877.468 560.656C875.804 559.504 874.46 557.616 873.436 554.992H844.444C843.484 557.616 842.172 559.504 840.508 560.656C838.844 561.744 837.084 562.288 835.228 562.288H832.828ZM858.652 610.672C854.492 610.672 850.972 609.904 848.092 608.368C845.276 606.832 843.132 604.752 841.66 602.128C840.252 599.44 839.548 596.4 839.548 593.008C839.548 589.488 840.028 586.448 840.988 583.888C842.012 581.264 843.324 578.832 844.924 576.592C846.524 574.352 848.252 572.048 850.108 569.68L856.444 562.096H869.308L860.572 573.328C864.796 573.968 868.188 575.184 870.748 576.976C873.372 578.704 875.26 580.848 876.412 583.408C877.628 585.968 878.236 588.816 878.236 591.952C878.236 596.56 877.308 600.24 875.452 602.992C873.596 605.68 871.164 607.632 868.156 608.848C865.212 610.064 862.044 610.672 858.652 610.672ZM858.94 601.552C861.244 601.552 863.164 600.848 864.7 599.44C866.236 597.968 867.004 595.76 867.004 592.816C867.004 590.96 866.62 589.232 865.852 587.632C865.148 585.968 863.9 584.624 862.108 583.6C860.38 582.512 858.044 581.84 855.1 581.584C853.628 583.632 852.572 585.552 851.932 587.344C851.292 589.136 850.972 590.992 850.972 592.912C850.972 595.792 851.74 597.968 853.276 599.44C854.812 600.848 856.7 601.552 858.94 601.552Z" fill="#D4D4D4"/>
<rect x="736" y="732" width="246" height="246" rx="51" fill="#3D3D3D"/>
<path d="M832.636 901.792L836.188 885.76H881.788L885.34 901.792H882.94C881.084 901.792 879.324 901.216 877.66 900.064C875.996 898.976 874.652 897.12 873.628 894.496H844.348C843.324 897.12 841.98 898.976 840.316 900.064C838.652 901.216 836.892 901.792 835.036 901.792H832.636ZM832.828 832.288L836.38 816.256H881.596L885.148 832.288H882.748C880.892 832.288 879.132 831.744 877.468 830.656C875.804 829.504 874.46 827.616 873.436 824.992H844.444C843.484 827.616 842.172 829.504 840.508 830.656C838.844 831.744 837.084 832.288 835.228 832.288H832.828ZM859.132 880.576C855.1 880.576 851.612 879.552 848.668 877.504C845.724 875.392 843.452 872.48 841.852 868.768C840.252 865.056 839.452 860.672 839.452 855.616C839.452 850.816 840.252 846.656 841.852 843.136C843.452 839.552 845.756 836.768 848.764 834.784C851.772 832.8 855.452 831.808 859.804 831.808C863.58 831.808 866.652 832.416 869.02 833.632C871.388 834.848 873.116 836.416 874.204 838.336C875.356 840.256 875.932 842.272 875.932 844.384C875.932 846.56 875.452 848.608 874.492 850.528C873.532 852.384 872.028 853.888 869.98 855.04C867.996 856.128 865.404 856.672 862.204 856.672C859.452 856.672 857.148 856.384 855.292 855.808C853.5 855.168 852.06 854.56 850.972 853.984C850.908 854.56 850.844 855.168 850.78 855.808C850.78 856.384 850.78 856.96 850.78 857.536C850.78 858.176 850.876 859.04 851.068 860.128C851.26 861.216 851.484 862.048 851.74 862.624C852.636 861.856 853.82 861.216 855.292 860.704C856.764 860.192 858.46 859.936 860.38 859.936C863.516 859.936 865.948 860.416 867.676 861.376C869.404 862.336 870.62 863.584 871.324 865.12C872.028 866.656 872.38 868.256 872.38 869.92C872.38 872.864 871.292 875.392 869.116 877.504C867.004 879.552 863.676 880.576 859.132 880.576ZM859.42 872.896C860.572 872.896 861.436 872.64 862.012 872.128C862.588 871.552 862.876 870.752 862.876 869.728C862.876 868.832 862.556 868.096 861.916 867.52C861.276 866.944 860.348 866.656 859.132 866.656C857.788 866.656 856.668 866.88 855.772 867.328C854.94 867.712 854.236 868.224 853.66 868.864C854.172 870.016 854.876 870.976 855.772 871.744C856.732 872.512 857.948 872.896 859.42 872.896ZM859.324 849.088C861.308 849.088 862.812 848.672 863.836 847.84C864.924 847.008 865.468 845.888 865.468 844.48C865.468 843.008 864.988 841.856 864.028 841.024C863.068 840.128 861.724 839.68 859.996 839.68C858.204 839.68 856.604 840.256 855.196 841.408C853.852 842.496 852.828 844.096 852.124 846.208C853.02 847.104 854.14 847.808 855.484 848.32C856.828 848.832 858.108 849.088 859.324 849.088Z" fill="#D4D4D4"/>
<rect x="736" y="1002" width="246" height="246" rx="51" fill="#737272"/>
<path d="M832.636 1171.79L836.188 1155.76H881.788L885.34 1171.79H882.94C881.084 1171.79 879.324 1171.22 877.66 1170.06C875.996 1168.98 874.652 1167.12 873.628 1164.5H844.348C843.324 1167.12 841.98 1168.98 840.316 1170.06C838.652 1171.22 836.892 1171.79 835.036 1171.79H832.636ZM832.828 1102.29L836.38 1086.26H881.596L885.148 1102.29H882.748C880.892 1102.29 879.132 1101.74 877.468 1100.66C875.804 1099.5 874.46 1097.62 873.436 1094.99H844.444C843.484 1097.62 842.172 1099.5 840.508 1100.66C838.844 1101.74 837.084 1102.29 835.228 1102.29H832.828ZM858.556 1150.67C852.86 1150.67 848.54 1148.78 845.596 1145.01C842.716 1141.23 841.276 1136.05 841.276 1129.46V1123.02C841.276 1116.5 842.716 1111.38 845.596 1107.66C848.54 1103.89 852.86 1102 858.556 1102C863.036 1102 866.556 1102.9 869.116 1104.69C871.74 1106.48 873.628 1108.98 874.78 1112.18C875.932 1115.31 876.508 1118.9 876.508 1122.93V1129.55C876.508 1133.58 875.932 1137.2 874.78 1140.4C873.628 1143.6 871.74 1146.13 869.116 1147.98C866.556 1149.78 863.036 1150.67 858.556 1150.67ZM858.748 1141.26C861.052 1141.26 862.556 1140.27 863.26 1138.29C863.964 1136.24 864.316 1133.33 864.316 1129.55V1122.83C864.316 1119.12 863.964 1116.27 863.26 1114.29C862.556 1112.3 861.052 1111.31 858.748 1111.31C856.892 1111.31 855.516 1112.24 854.62 1114.1C853.788 1115.95 853.372 1118.74 853.372 1122.45V1129.46C853.372 1133.42 853.788 1136.4 854.62 1138.38C855.516 1140.3 856.892 1141.26 858.748 1141.26Z" fill="#D4D4D4"/>
<rect x="182" y="462" width="246" height="246" rx="51" fill="#515151"/>
<path d="M278.636 631.792L282.188 615.76H327.788L331.34 631.792H328.94C327.084 631.792 325.324 631.216 323.66 630.064C321.996 628.976 320.652 627.12 319.628 624.496H290.348C289.324 627.12 287.98 628.976 286.316 630.064C284.652 631.216 282.892 631.792 281.036 631.792H278.636ZM278.828 562.288L282.38 546.256H327.596L331.148 562.288H328.748C326.892 562.288 325.132 561.744 323.468 560.656C321.804 559.504 320.46 557.616 319.436 554.992H290.444C289.484 557.616 288.172 559.504 286.508 560.656C284.844 561.744 283.084 562.288 281.228 562.288H278.828ZM288.044 609.616V594.448C288.044 588.432 288.652 583.504 289.868 579.664C291.084 575.76 292.844 572.752 295.148 570.64C297.452 568.464 300.204 566.96 303.404 566.128C306.604 565.296 310.22 564.88 314.252 564.88H322.604L326.156 580.912H324.044C321.804 580.912 319.884 580.336 318.284 579.184C316.748 577.968 315.5 576.112 314.54 573.616H313.868C310.348 573.616 307.564 574.448 305.516 576.112C303.532 577.712 302.156 580.24 301.388 583.696C300.62 587.088 300.236 591.472 300.236 596.848V609.616H288.044Z" fill="#D4D4D4"/>
<rect x="1014" y="1002" width="246" height="246" rx="51" fill="#515151"/>
<path d="M1110.64 1171.79L1114.19 1155.76H1159.79L1163.34 1171.79H1160.94C1159.08 1171.79 1157.32 1171.22 1155.66 1170.06C1154 1168.98 1152.65 1167.12 1151.63 1164.5H1122.35C1121.32 1167.12 1119.98 1168.98 1118.32 1170.06C1116.65 1171.22 1114.89 1171.79 1113.04 1171.79H1110.64ZM1110.83 1102.29L1114.38 1086.26H1159.6L1163.15 1102.29H1160.75C1158.89 1102.29 1157.13 1101.74 1155.47 1100.66C1153.8 1099.5 1152.46 1097.62 1151.44 1094.99H1122.44C1121.48 1097.62 1120.17 1099.5 1118.51 1100.66C1116.84 1101.74 1115.08 1102.29 1113.23 1102.29H1110.83ZM1120.04 1149.62V1134.45C1120.04 1128.43 1120.65 1123.5 1121.87 1119.66C1123.08 1115.76 1124.84 1112.75 1127.15 1110.64C1129.45 1108.46 1132.2 1106.96 1135.4 1106.13C1138.6 1105.3 1142.22 1104.88 1146.25 1104.88H1154.6L1158.16 1120.91H1156.04C1153.8 1120.91 1151.88 1120.34 1150.28 1119.18C1148.75 1117.97 1147.5 1116.11 1146.54 1113.62H1145.87C1142.35 1113.62 1139.56 1114.45 1137.52 1116.11C1135.53 1117.71 1134.16 1120.24 1133.39 1123.7C1132.62 1127.09 1132.24 1131.47 1132.24 1136.85V1149.62H1120.04Z" fill="#D4D4D4"/>
</svg>
