<svg width="1440" height="1440" viewBox="0 0 1440 1440" fill="none" xmlns="http://www.w3.org/2000/svg">
<rect width="1440" height="1440" rx="111" fill="#1F1F1F"/>
<rect x="736" y="1002" width="246" height="246" rx="51" fill="#262626"/>
<rect x="458" y="1002" width="246" height="246" rx="51" fill="#262626"/>
<rect x="180" y="1002" width="246" height="246" rx="51" fill="#33675B"/>
<rect x="1014" y="1002" width="246" height="246" rx="51" fill="#262626"/>
<rect x="736" y="462" width="246" height="246" rx="51" fill="#262626"/>
<rect x="458" y="462" width="246" height="246" rx="51" fill="#262626"/>
<rect x="180" y="462" width="246" height="246" rx="51" fill="#33675B"/>
<rect x="1014" y="462" width="246" height="246" rx="51" fill="#262626"/>
<rect x="736" y="732" width="246" height="246" rx="51" fill="#262626"/>
<rect x="458" y="732" width="246" height="246" rx="51" fill="#262626"/>
<rect x="180" y="732" width="246" height="246" rx="51" fill="#33675B"/>
<rect x="1014" y="732" width="246" height="246" rx="51" fill="#262626"/>
<rect x="736" y="192" width="246" height="246" rx="51" fill="#262626"/>
<rect x="458" y="192" width="246" height="246" rx="51" fill="#262626"/>
<rect x="180" y="192" width="246" height="246" rx="51" fill="#262626"/>
<rect x="1014" y="192" width="246" height="246" rx="51" fill="#262626"/>
<rect x="1014" y="1002" width="246" height="246" rx="51" fill="#2D2D2D"/>
<path d="M1110.64 1171.79L1114.19 1155.76H1159.79L1163.34 1171.79H1160.94C1159.08 1171.79 1157.32 1171.22 1155.66 1170.06C1154 1168.98 1152.65 1167.12 1151.63 1164.5H1122.35C1121.32 1167.12 1119.98 1168.98 1118.32 1170.06C1116.65 1171.22 1114.89 1171.79 1113.04 1171.79H1110.64ZM1110.83 1102.29L1114.38 1086.26H1159.6L1163.15 1102.29H1160.75C1158.89 1102.29 1157.13 1101.74 1155.47 1100.66C1153.8 1099.5 1152.46 1097.62 1151.44 1094.99H1122.44C1121.48 1097.62 1120.17 1099.5 1118.51 1100.66C1116.84 1101.74 1115.08 1102.29 1113.23 1102.29H1110.83ZM1136.65 1150.67C1132.49 1150.67 1128.97 1149.9 1126.09 1148.37C1123.28 1146.83 1121.13 1144.75 1119.66 1142.13C1118.25 1139.44 1117.55 1136.4 1117.55 1133.01C1117.55 1129.49 1118.03 1126.45 1118.99 1123.89C1120.01 1121.26 1121.32 1118.83 1122.92 1116.59C1124.52 1114.35 1126.25 1112.05 1128.11 1109.68L1134.44 1102.1H1147.31L1138.57 1113.33C1142.8 1113.97 1146.19 1115.18 1148.75 1116.98C1151.37 1118.7 1153.26 1120.85 1154.41 1123.41C1155.63 1125.97 1156.24 1128.82 1156.24 1131.95C1156.24 1136.56 1155.31 1140.24 1153.45 1142.99C1151.6 1145.68 1149.16 1147.63 1146.16 1148.85C1143.21 1150.06 1140.04 1150.67 1136.65 1150.67ZM1136.94 1141.55C1139.24 1141.55 1141.16 1140.85 1142.7 1139.44C1144.24 1137.97 1145 1135.76 1145 1132.82C1145 1130.96 1144.62 1129.23 1143.85 1127.63C1143.15 1125.97 1141.9 1124.62 1140.11 1123.6C1138.38 1122.51 1136.04 1121.84 1133.1 1121.58C1131.63 1123.63 1130.57 1125.55 1129.93 1127.34C1129.29 1129.14 1128.97 1130.99 1128.97 1132.91C1128.97 1135.79 1129.74 1137.97 1131.28 1139.44C1132.81 1140.85 1134.7 1141.55 1136.94 1141.55Z" fill="#D4D4D4"/>
<rect x="1014" y="462" width="246" height="246" rx="51" fill="#2D2D2D"/>
<path d="M1110.64 631.792L1114.19 615.76H1159.79L1163.34 631.792H1160.94C1159.08 631.792 1157.32 631.216 1155.66 630.064C1154 628.976 1152.65 627.12 1151.63 624.496H1122.35C1121.32 627.12 1119.98 628.976 1118.32 630.064C1116.65 631.216 1114.89 631.792 1113.04 631.792H1110.64ZM1110.83 562.288L1114.38 546.256H1159.6L1163.15 562.288H1160.75C1158.89 562.288 1157.13 561.744 1155.47 560.656C1153.8 559.504 1152.46 557.616 1151.44 554.992H1122.44C1121.48 557.616 1120.17 559.504 1118.51 560.656C1116.84 561.744 1115.08 562.288 1113.23 562.288H1110.83ZM1136.65 610.672C1132.49 610.672 1128.97 609.904 1126.09 608.368C1123.28 606.832 1121.13 604.752 1119.66 602.128C1118.25 599.44 1117.55 596.4 1117.55 593.008C1117.55 589.488 1118.03 586.448 1118.99 583.888C1120.01 581.264 1121.32 578.832 1122.92 576.592C1124.52 574.352 1126.25 572.048 1128.11 569.68L1134.44 562.096H1147.31L1138.57 573.328C1142.8 573.968 1146.19 575.184 1148.75 576.976C1151.37 578.704 1153.26 580.848 1154.41 583.408C1155.63 585.968 1156.24 588.816 1156.24 591.952C1156.24 596.56 1155.31 600.24 1153.45 602.992C1151.6 605.68 1149.16 607.632 1146.16 608.848C1143.21 610.064 1140.04 610.672 1136.65 610.672ZM1136.94 601.552C1139.24 601.552 1141.16 600.848 1142.7 599.44C1144.24 597.968 1145 595.76 1145 592.816C1145 590.96 1144.62 589.232 1143.85 587.632C1143.15 585.968 1141.9 584.624 1140.11 583.6C1138.38 582.512 1136.04 581.84 1133.1 581.584C1131.63 583.632 1130.57 585.552 1129.93 587.344C1129.29 589.136 1128.97 590.992 1128.97 592.912C1128.97 595.792 1129.74 597.968 1131.28 599.44C1132.81 600.848 1134.7 601.552 1136.94 601.552Z" fill="#D4D4D4"/>
<rect x="736" y="732" width="246" height="246" rx="51" fill="#3D3D3D"/>
<path d="M832.636 901.792L836.188 885.76H881.788L885.34 901.792H882.94C881.084 901.792 879.324 901.216 877.66 900.064C875.996 898.976 874.652 897.12 873.628 894.496H844.348C843.324 897.12 841.98 898.976 840.316 900.064C838.652 901.216 836.892 901.792 835.036 901.792H832.636ZM832.828 832.288L836.38 816.256H881.596L885.148 832.288H882.748C880.892 832.288 879.132 831.744 877.468 830.656C875.804 829.504 874.46 827.616 873.436 824.992H844.444C843.484 827.616 842.172 829.504 840.508 830.656C838.844 831.744 837.084 832.288 835.228 832.288H832.828ZM859.132 880.576C855.1 880.576 851.612 879.552 848.668 877.504C845.724 875.392 843.452 872.48 841.852 868.768C840.252 865.056 839.452 860.672 839.452 855.616C839.452 850.816 840.252 846.656 841.852 843.136C843.452 839.552 845.756 836.768 848.764 834.784C851.772 832.8 855.452 831.808 859.804 831.808C863.58 831.808 866.652 832.416 869.02 833.632C871.388 834.848 873.116 836.416 874.204 838.336C875.356 840.256 875.932 842.272 875.932 844.384C875.932 846.56 875.452 848.608 874.492 850.528C873.532 852.384 872.028 853.888 869.98 855.04C867.996 856.128 865.404 856.672 862.204 856.672C859.452 856.672 857.148 856.384 855.292 855.808C853.5 855.168 852.06 854.56 850.972 853.984C850.908 854.56 850.844 855.168 850.78 855.808C850.78 856.384 850.78 856.96 850.78 857.536C850.78 858.176 850.876 859.04 851.068 860.128C851.26 861.216 851.484 862.048 851.74 862.624C852.636 861.856 853.82 861.216 855.292 860.704C856.764 860.192 858.46 859.936 860.38 859.936C863.516 859.936 865.948 860.416 867.676 861.376C869.404 862.336 870.62 863.584 871.324 865.12C872.028 866.656 872.38 868.256 872.38 869.92C872.38 872.864 871.292 875.392 869.116 877.504C867.004 879.552 863.676 880.576 859.132 880.576ZM859.42 872.896C860.572 872.896 861.436 872.64 862.012 872.128C862.588 871.552 862.876 870.752 862.876 869.728C862.876 868.832 862.556 868.096 861.916 867.52C861.276 866.944 860.348 866.656 859.132 866.656C857.788 866.656 856.668 866.88 855.772 867.328C854.94 867.712 854.236 868.224 853.66 868.864C854.172 870.016 854.876 870.976 855.772 871.744C856.732 872.512 857.948 872.896 859.42 872.896ZM859.324 849.088C861.308 849.088 862.812 848.672 863.836 847.84C864.924 847.008 865.468 845.888 865.468 844.48C865.468 843.008 864.988 841.856 864.028 841.024C863.068 840.128 861.724 839.68 859.996 839.68C858.204 839.68 856.604 840.256 855.196 841.408C853.852 842.496 852.828 844.096 852.124 846.208C853.02 847.104 854.14 847.808 855.484 848.32C856.828 848.832 858.108 849.088 859.324 849.088Z" fill="#D4D4D4"/>
<path d="M538.25 1125H623.75M557.25 1144L538.25 1125L557.25 1144ZM538.25 1125L557.25 1106L538.25 1125Z" stroke="#52525B" stroke-width="9.5" stroke-linecap="round" stroke-linejoin="round"/>
<path d="M538.25 855H623.75M557.25 874L538.25 855L557.25 874ZM538.25 855L557.25 836L538.25 855Z" stroke="#52525B" stroke-width="9.5" stroke-linecap="round" stroke-linejoin="round"/>
<path d="M538.25 585H623.75M557.25 604L538.25 585L557.25 604ZM538.25 585L557.25 566L538.25 585Z" stroke="#52525B" stroke-width="9.5" stroke-linecap="round" stroke-linejoin="round"/>
</svg>
