<svg width="1440" height="1440" viewBox="0 0 1440 1440" fill="none" xmlns="http://www.w3.org/2000/svg">
<rect width="1440" height="1440" rx="111" fill="#1F1F1F"/>
<rect x="736" y="1002" width="246" height="246" rx="51" fill="#262626"/>
<rect x="458" y="1002" width="246" height="246" rx="51" fill="#262626"/>
<rect x="180" y="1002" width="246" height="246" rx="51" fill="#262626"/>
<rect x="1014" y="1002" width="246" height="246" rx="51" fill="#262626"/>
<rect x="736" y="462" width="246" height="246" rx="51" fill="#262626"/>
<rect x="458" y="462" width="246" height="246" rx="51" fill="#262626"/>
<rect x="180" y="462" width="246" height="246" rx="51" fill="#262626"/>
<rect x="1014" y="462" width="246" height="246" rx="51" fill="#262626"/>
<rect x="736" y="732" width="246" height="246" rx="51" fill="#262626"/>
<rect x="458" y="732" width="246" height="246" rx="51" fill="#262626"/>
<rect x="180" y="732" width="246" height="246" rx="51" fill="#262626"/>
<rect x="1014" y="732" width="246" height="246" rx="51" fill="#262626"/>
<rect x="736" y="192" width="246" height="246" rx="51" fill="#262626"/>
<rect x="458" y="192" width="246" height="246" rx="51" fill="#262626"/>
<rect x="180" y="192" width="246" height="246" rx="51" fill="#262626"/>
<rect x="1014" y="192" width="246" height="246" rx="51" fill="#262626"/>
<rect x="736" y="462" width="246" height="246" rx="51" fill="#2D2D2D"/>
<rect x="736" y="1002" width="246" height="246" rx="51" fill="#515151"/>
<path d="M832.636 631.792L836.188 615.76H881.788L885.34 631.792H882.94C881.084 631.792 879.324 631.216 877.66 630.064C875.996 628.976 874.652 627.12 873.628 624.496H844.348C843.324 627.12 841.98 628.976 840.316 630.064C838.652 631.216 836.892 631.792 835.036 631.792H832.636ZM832.828 562.288L836.38 546.256H881.596L885.148 562.288H882.748C880.892 562.288 879.132 561.744 877.468 560.656C875.804 559.504 874.46 557.616 873.436 554.992H844.444C843.484 557.616 842.172 559.504 840.508 560.656C838.844 561.744 837.084 562.288 835.228 562.288H832.828ZM858.652 610.672C854.492 610.672 850.972 609.904 848.092 608.368C845.276 606.832 843.132 604.752 841.66 602.128C840.252 599.44 839.548 596.4 839.548 593.008C839.548 589.488 840.028 586.448 840.988 583.888C842.012 581.264 843.324 578.832 844.924 576.592C846.524 574.352 848.252 572.048 850.108 569.68L856.444 562.096H869.308L860.572 573.328C864.796 573.968 868.188 575.184 870.748 576.976C873.372 578.704 875.26 580.848 876.412 583.408C877.628 585.968 878.236 588.816 878.236 591.952C878.236 596.56 877.308 600.24 875.452 602.992C873.596 605.68 871.164 607.632 868.156 608.848C865.212 610.064 862.044 610.672 858.652 610.672ZM858.94 601.552C861.244 601.552 863.164 600.848 864.7 599.44C866.236 597.968 867.004 595.76 867.004 592.816C867.004 590.96 866.62 589.232 865.852 587.632C865.148 585.968 863.9 584.624 862.108 583.6C860.38 582.512 858.044 581.84 855.1 581.584C853.628 583.632 852.572 585.552 851.932 587.344C851.292 589.136 850.972 590.992 850.972 592.912C850.972 595.792 851.74 597.968 853.276 599.44C854.812 600.848 856.7 601.552 858.94 601.552Z" fill="#D4D4D4"/>
<path d="M832.636 1171.79L836.188 1155.76H881.788L885.34 1171.79H882.94C881.084 1171.79 879.324 1171.22 877.66 1170.06C875.996 1168.98 874.652 1167.12 873.628 1164.5H844.348C843.324 1167.12 841.98 1168.98 840.316 1170.06C838.652 1171.22 836.892 1171.79 835.036 1171.79H832.636ZM832.828 1102.29L836.38 1086.26H881.596L885.148 1102.29H882.748C880.892 1102.29 879.132 1101.74 877.468 1100.66C875.804 1099.5 874.46 1097.62 873.436 1094.99H844.444C843.484 1097.62 842.172 1099.5 840.508 1100.66C838.844 1101.74 837.084 1102.29 835.228 1102.29H832.828ZM842.044 1149.62V1134.45C842.044 1128.43 842.652 1123.5 843.868 1119.66C845.084 1115.76 846.844 1112.75 849.148 1110.64C851.452 1108.46 854.204 1106.96 857.404 1106.13C860.604 1105.3 864.22 1104.88 868.252 1104.88H876.604L880.156 1120.91H878.044C875.804 1120.91 873.884 1120.34 872.284 1119.18C870.748 1117.97 869.5 1116.11 868.54 1113.62H867.868C864.348 1113.62 861.564 1114.45 859.516 1116.11C857.532 1117.71 856.156 1120.24 855.388 1123.7C854.62 1127.09 854.236 1131.47 854.236 1136.85V1149.62H842.044Z" fill="#D4D4D4"/>
<rect x="458" y="462" width="246" height="246" rx="51" fill="#2D2D2D"/>
<path d="M554.636 631.792L558.188 615.76H603.788L607.34 631.792H604.94C603.084 631.792 601.324 631.216 599.66 630.064C597.996 628.976 596.652 627.12 595.628 624.496H566.348C565.324 627.12 563.98 628.976 562.316 630.064C560.652 631.216 558.892 631.792 557.036 631.792H554.636ZM554.828 562.288L558.38 546.256H603.596L607.148 562.288H604.748C602.892 562.288 601.132 561.744 599.468 560.656C597.804 559.504 596.46 557.616 595.436 554.992H566.444C565.484 557.616 564.172 559.504 562.508 560.656C560.844 561.744 559.084 562.288 557.228 562.288H554.828ZM580.652 610.672C576.492 610.672 572.972 609.904 570.092 608.368C567.276 606.832 565.132 604.752 563.66 602.128C562.252 599.44 561.548 596.4 561.548 593.008C561.548 589.488 562.028 586.448 562.988 583.888C564.012 581.264 565.324 578.832 566.924 576.592C568.524 574.352 570.252 572.048 572.108 569.68L578.444 562.096H591.308L582.572 573.328C586.796 573.968 590.188 575.184 592.748 576.976C595.372 578.704 597.26 580.848 598.412 583.408C599.628 585.968 600.236 588.816 600.236 591.952C600.236 596.56 599.308 600.24 597.452 602.992C595.596 605.68 593.164 607.632 590.156 608.848C587.212 610.064 584.044 610.672 580.652 610.672ZM580.94 601.552C583.244 601.552 585.164 600.848 586.7 599.44C588.236 597.968 589.004 595.76 589.004 592.816C589.004 590.96 588.62 589.232 587.852 587.632C587.148 585.968 585.9 584.624 584.108 583.6C582.38 582.512 580.044 581.84 577.1 581.584C575.628 583.632 574.572 585.552 573.932 587.344C573.292 589.136 572.972 590.992 572.972 592.912C572.972 595.792 573.74 597.968 575.276 599.44C576.812 600.848 578.7 601.552 580.94 601.552Z" fill="#D4D4D4"/>
<rect x="458" y="1002" width="246" height="246" rx="51" fill="#515151"/>
<path d="M554.636 1171.79L558.188 1155.76H603.788L607.34 1171.79H604.94C603.084 1171.79 601.324 1171.22 599.66 1170.06C597.996 1168.98 596.652 1167.12 595.628 1164.5H566.348C565.324 1167.12 563.98 1168.98 562.316 1170.06C560.652 1171.22 558.892 1171.79 557.036 1171.79H554.636ZM554.828 1102.29L558.38 1086.26H603.596L607.148 1102.29H604.748C602.892 1102.29 601.132 1101.74 599.468 1100.66C597.804 1099.5 596.46 1097.62 595.436 1094.99H566.444C565.484 1097.62 564.172 1099.5 562.508 1100.66C560.844 1101.74 559.084 1102.29 557.228 1102.29H554.828ZM564.044 1149.62V1134.45C564.044 1128.43 564.652 1123.5 565.868 1119.66C567.084 1115.76 568.844 1112.75 571.148 1110.64C573.452 1108.46 576.204 1106.96 579.404 1106.13C582.604 1105.3 586.22 1104.88 590.252 1104.88H598.604L602.156 1120.91H600.044C597.804 1120.91 595.884 1120.34 594.284 1119.18C592.748 1117.97 591.5 1116.11 590.54 1113.62H589.868C586.348 1113.62 583.564 1114.45 581.516 1116.11C579.532 1117.71 578.156 1120.24 577.388 1123.7C576.62 1127.09 576.236 1131.47 576.236 1136.85V1149.62H564.044Z" fill="#D4D4D4"/>
<rect x="1014" y="462" width="246" height="246" rx="51" fill="#3D3D3D"/>
<path d="M1110.64 631.792L1114.19 615.76H1159.79L1163.34 631.792H1160.94C1159.08 631.792 1157.32 631.216 1155.66 630.064C1154 628.976 1152.65 627.12 1151.63 624.496H1122.35C1121.32 627.12 1119.98 628.976 1118.32 630.064C1116.65 631.216 1114.89 631.792 1113.04 631.792H1110.64ZM1110.83 562.288L1114.38 546.256H1159.6L1163.15 562.288H1160.75C1158.89 562.288 1157.13 561.744 1155.47 560.656C1153.8 559.504 1152.46 557.616 1151.44 554.992H1122.44C1121.48 557.616 1120.17 559.504 1118.51 560.656C1116.84 561.744 1115.08 562.288 1113.23 562.288H1110.83ZM1137.13 610.576C1133.1 610.576 1129.61 609.552 1126.67 607.504C1123.72 605.392 1121.45 602.48 1119.85 598.768C1118.25 595.056 1117.45 590.672 1117.45 585.616C1117.45 580.816 1118.25 576.656 1119.85 573.136C1121.45 569.552 1123.76 566.768 1126.76 564.784C1129.77 562.8 1133.45 561.808 1137.8 561.808C1141.58 561.808 1144.65 562.416 1147.02 563.632C1149.39 564.848 1151.12 566.416 1152.2 568.336C1153.36 570.256 1153.93 572.272 1153.93 574.384C1153.93 576.56 1153.45 578.608 1152.49 580.528C1151.53 582.384 1150.03 583.888 1147.98 585.04C1146 586.128 1143.4 586.672 1140.2 586.672C1137.45 586.672 1135.15 586.384 1133.29 585.808C1131.5 585.168 1130.06 584.56 1128.97 583.984C1128.91 584.56 1128.84 585.168 1128.78 585.808C1128.78 586.384 1128.78 586.96 1128.78 587.536C1128.78 588.176 1128.88 589.04 1129.07 590.128C1129.26 591.216 1129.48 592.048 1129.74 592.624C1130.64 591.856 1131.82 591.216 1133.29 590.704C1134.76 590.192 1136.46 589.936 1138.38 589.936C1141.52 589.936 1143.95 590.416 1145.68 591.376C1147.4 592.336 1148.62 593.584 1149.32 595.12C1150.03 596.656 1150.38 598.256 1150.38 599.92C1150.38 602.864 1149.29 605.392 1147.12 607.504C1145 609.552 1141.68 610.576 1137.13 610.576ZM1137.42 602.896C1138.57 602.896 1139.44 602.64 1140.01 602.128C1140.59 601.552 1140.88 600.752 1140.88 599.728C1140.88 598.832 1140.56 598.096 1139.92 597.52C1139.28 596.944 1138.35 596.656 1137.13 596.656C1135.79 596.656 1134.67 596.88 1133.77 597.328C1132.94 597.712 1132.24 598.224 1131.66 598.864C1132.17 600.016 1132.88 600.976 1133.77 601.744C1134.73 602.512 1135.95 602.896 1137.42 602.896ZM1137.32 579.088C1139.31 579.088 1140.81 578.672 1141.84 577.84C1142.92 577.008 1143.47 575.888 1143.47 574.48C1143.47 573.008 1142.99 571.856 1142.03 571.024C1141.07 570.128 1139.72 569.68 1138 569.68C1136.2 569.68 1134.6 570.256 1133.2 571.408C1131.85 572.496 1130.83 574.096 1130.12 576.208C1131.02 577.104 1132.14 577.808 1133.48 578.32C1134.83 578.832 1136.11 579.088 1137.32 579.088Z" fill="#D4D4D4"/>
<rect x="1014" y="1002" width="246" height="246" rx="51" fill="#737272"/>
<path d="M1110.64 1171.79L1114.19 1155.76H1159.79L1163.34 1171.79H1160.94C1159.08 1171.79 1157.32 1171.22 1155.66 1170.06C1154 1168.98 1152.65 1167.12 1151.63 1164.5H1122.35C1121.32 1167.12 1119.98 1168.98 1118.32 1170.06C1116.65 1171.22 1114.89 1171.79 1113.04 1171.79H1110.64ZM1110.83 1102.29L1114.38 1086.26H1159.6L1163.15 1102.29H1160.75C1158.89 1102.29 1157.13 1101.74 1155.47 1100.66C1153.8 1099.5 1152.46 1097.62 1151.44 1094.99H1122.44C1121.48 1097.62 1120.17 1099.5 1118.51 1100.66C1116.84 1101.74 1115.08 1102.29 1113.23 1102.29H1110.83ZM1136.56 1150.67C1130.86 1150.67 1126.54 1148.78 1123.6 1145.01C1120.72 1141.23 1119.28 1136.05 1119.28 1129.46V1123.02C1119.28 1116.5 1120.72 1111.38 1123.6 1107.66C1126.54 1103.89 1130.86 1102 1136.56 1102C1141.04 1102 1144.56 1102.9 1147.12 1104.69C1149.74 1106.48 1151.63 1108.98 1152.78 1112.18C1153.93 1115.31 1154.51 1118.9 1154.51 1122.93V1129.55C1154.51 1133.58 1153.93 1137.2 1152.78 1140.4C1151.63 1143.6 1149.74 1146.13 1147.12 1147.98C1144.56 1149.78 1141.04 1150.67 1136.56 1150.67ZM1136.75 1141.26C1139.05 1141.26 1140.56 1140.27 1141.26 1138.29C1141.96 1136.24 1142.32 1133.33 1142.32 1129.55V1122.83C1142.32 1119.12 1141.96 1116.27 1141.26 1114.29C1140.56 1112.3 1139.05 1111.31 1136.75 1111.31C1134.89 1111.31 1133.52 1112.24 1132.62 1114.1C1131.79 1115.95 1131.37 1118.74 1131.37 1122.45V1129.46C1131.37 1133.42 1131.79 1136.4 1132.62 1138.38C1133.52 1140.3 1134.89 1141.26 1136.75 1141.26Z" fill="#D4D4D4"/>
<path fill-rule="evenodd" clip-rule="evenodd" d="M720 570C720.796 570 721.559 570.317 722.122 570.879C722.684 571.442 723 572.205 723 573V582H732C732.796 582 733.559 582.317 734.122 582.879C734.684 583.442 735 584.205 735 585C735 585.796 734.684 586.559 734.122 587.122C733.559 587.684 732.796 588 732 588H723V597C723 597.796 722.684 598.559 722.122 599.122C721.559 599.684 720.796 600 720 600C719.205 600 718.442 599.684 717.879 599.122C717.317 598.559 717 597.796 717 597V588H708C707.205 588 706.442 587.684 705.879 587.122C705.317 586.559 705 585.796 705 585C705 584.205 705.317 583.442 705.879 582.879C706.442 582.317 707.205 582 708 582H717V573C717 572.205 717.317 571.442 717.879 570.879C718.442 570.317 719.205 570 720 570V570Z" fill="#E7E6E6"/>
<path fill-rule="evenodd" clip-rule="evenodd" d="M720 1110C720.796 1110 721.559 1110.32 722.122 1110.88C722.684 1111.44 723 1112.2 723 1113V1122H732C732.796 1122 733.559 1122.32 734.122 1122.88C734.684 1123.44 735 1124.2 735 1125C735 1125.8 734.684 1126.56 734.122 1127.12C733.559 1127.68 732.796 1128 732 1128H723V1137C723 1137.8 722.684 1138.56 722.122 1139.12C721.559 1139.68 720.796 1140 720 1140C719.205 1140 718.442 1139.68 717.879 1139.12C717.317 1138.56 717 1137.8 717 1137V1128H708C707.205 1128 706.442 1127.68 705.879 1127.12C705.317 1126.56 705 1125.8 705 1125C705 1124.2 705.317 1123.44 705.879 1122.88C706.442 1122.32 707.205 1122 708 1122H717V1113C717 1112.2 717.317 1111.44 717.879 1110.88C718.442 1110.32 719.205 1110 720 1110V1110Z" fill="#E7E6E6"/>
<path d="M1036.75 585H975.25M1023.08 598.667L1036.75 585L1023.08 598.667ZM1036.75 585L1023.08 571.333L1036.75 585Z" stroke="#E7E6E6" stroke-width="6.83333" stroke-linecap="round" stroke-linejoin="round"/>
<path d="M1036.75 1125H975.25M1023.08 1138.67L1036.75 1125L1023.08 1138.67ZM1036.75 1125L1023.08 1111.33L1036.75 1125Z" stroke="#E7E6E6" stroke-width="6.83333" stroke-linecap="round" stroke-linejoin="round"/>
</svg>
